<?xml version="1.0" encoding="utf-8"?>
<!-- Generator: Adobe Illustrator 26.3.1, SVG Export Plug-In . SVG Version: 6.00 Build 0)  -->
<svg version="1.1" id="Capa_1" xmlns="http://www.w3.org/2000/svg" xmlns:xlink="http://www.w3.org/1999/xlink" x="0px" y="0px"
	 viewBox="0 0 300 100" style="enable-background:new 0 0 300 100;" xml:space="preserve">
<style type="text/css">
	.st0{fill:#FFFFFF;}
</style>
<g>
	<path class="st0" d="M118,49.1c-0.6,0.6-1,1.2-1.3,1.9s-0.5,1.3-0.6,2s-0.2,1.3-0.2,1.9v11.4c0,1-0.4,1.9-1.1,2.6s-1.6,1.1-2.6,1.1
		s-1.8-0.4-2.6-1.1c-0.7-0.7-1.1-1.6-1.1-2.6V44.1c0-1,0.4-1.8,1.1-2.6c0.7-0.7,1.6-1.1,2.6-1.1s1.9,0.4,2.6,1.1
		c0.7,0.7,1.1,1.6,1.1,2.6c0.3-0.3,0.7-0.7,1.1-1.2c0.5-0.4,1-0.8,1.5-1.2s1.1-0.7,1.8-0.9s1.2-0.4,1.8-0.4c1.4,0,2.3,0.4,2.8,1.1
		c0.5,0.7,0.7,1.5,0.7,2.5c0,0.8-0.2,1.4-0.5,1.8c-0.4,0.4-0.8,0.7-1.3,0.9s-1.1,0.4-1.7,0.5s-1.2,0.3-1.7,0.5
		C119.3,48,118.6,48.5,118,49.1z"/>
	<path class="st0" d="M134.1,57.4c-0.4,0-0.7,0.1-0.8,0.4c-0.2,0.3-0.3,0.6-0.3,1c0,0.5,0.2,1.1,0.5,1.8s0.8,1.3,1.4,1.9
		s1.4,1.1,2.3,1.5c0.9,0.4,1.9,0.6,3.1,0.6c0.7,0,1.3-0.1,1.9-0.2c0.5-0.2,1.1-0.4,1.5-0.7c0.5-0.3,0.9-0.7,1.4-1.2s1-1.1,1.6-1.8
		c0.5-0.6,1.1-0.9,1.7-0.9c0.4,0,0.8,0.1,1.2,0.3s0.8,0.5,1.1,0.8s0.6,0.7,0.8,1.1c0.2,0.4,0.3,0.9,0.3,1.3c0,0.4-0.2,1.1-0.7,1.9
		s-1.2,1.6-2.1,2.4c-0.9,0.8-2.1,1.5-3.6,2.1s-3.1,0.9-5.1,0.9c-2.2,0-4.2-0.4-6-1.2c-1.8-0.8-3.2-1.9-4.5-3.3s-2.1-3-2.7-4.8
		s-0.9-3.7-0.9-5.8c0-2,0.3-4,0.8-5.8c0.6-1.8,1.4-3.4,2.6-4.8c1.2-1.4,2.6-2.5,4.3-3.3s3.8-1.2,6.1-1.2s4.2,0.4,5.9,1.3
		c1.6,0.9,3,1.9,4.1,3.2s1.9,2.7,2.4,4.2s0.8,2.9,0.8,4.1c0,1.2-0.2,2.2-0.7,3s-1.1,1.2-1.9,1.2H134.1z M136.9,47
		c-0.8,0.4-1.5,0.8-2,1.3s-0.9,1.1-1.2,1.7c-0.3,0.6-0.4,1.1-0.4,1.5c0,0.7,0.3,1,0.8,1h11.6c0.4,0,0.7-0.3,0.7-1
		c0-0.4-0.1-0.9-0.4-1.5c-0.3-0.6-0.6-1.1-1.2-1.7c-0.5-0.5-1.2-1-2-1.3c-0.8-0.4-1.8-0.6-2.9-0.6C138.7,46.4,137.8,46.6,136.9,47z"
		/>
	<path class="st0" d="M173.6,67.4c-0.4,0.4-0.9,0.8-1.5,1.2c-0.6,0.4-1.4,0.7-2.4,0.9c-1,0.3-2.2,0.4-3.6,0.4
		c-1.7,0-3.2-0.4-4.6-1.1c-1.4-0.7-2.5-1.7-3.5-3s-1.7-2.9-2.2-4.7s-0.8-3.8-0.8-6s0.3-4.2,0.8-6s1.3-3.4,2.2-4.7
		c1-1.3,2.1-2.3,3.5-3s2.9-1.1,4.6-1.1c1.3,0,2.4,0.2,3.3,0.6c0.9,0.4,1.8,0.8,2.4,1.2c0.7,0.5,1.2,0.9,1.6,1.2
		c0.4,0.4,0.7,0.6,0.9,0.6s0.3-0.2,0.3-0.7v-10c0-1,0.4-1.9,1.1-2.6c0.7-0.7,1.6-1.1,2.6-1.1s1.9,0.4,2.6,1.1
		c0.7,0.7,1.1,1.6,1.1,2.6V66c0,1-0.4,1.8-1.1,2.6c-0.7,0.7-1.6,1.1-2.6,1.1s-1.9-0.4-2.6-1.1c-0.7-0.7-1.1-1.6-1.1-2.6
		C174.3,66.6,174,66.9,173.6,67.4z M163.4,48.8c-1.2,1.6-1.8,3.7-1.8,6.4s0.6,4.8,1.8,6.4c1.2,1.6,2.9,2.3,5,2.3s3.8-0.8,5-2.3
		c1.2-1.6,1.8-3.7,1.8-6.4s-0.6-4.8-1.8-6.4c-1.2-1.6-2.9-2.3-5-2.3C166.3,46.4,164.6,47.2,163.4,48.8z"/>
	<path class="st0" d="M203.9,67.4c-0.4,0.4-0.9,0.8-1.5,1.2s-1.4,0.7-2.4,0.9c-1,0.3-2.2,0.4-3.6,0.4c-1.7,0-3.2-0.4-4.6-1.1
		c-1.4-0.7-2.5-1.7-3.5-3s-1.7-2.9-2.2-4.7s-0.8-3.8-0.8-6s0.3-4.2,0.8-6s1.3-3.4,2.2-4.7c1-1.3,2.1-2.3,3.5-3s2.9-1.1,4.6-1.1
		c1.3,0,2.4,0.2,3.3,0.6c0.9,0.4,1.8,0.8,2.4,1.2c0.7,0.5,1.2,0.9,1.6,1.2c0.4,0.4,0.7,0.6,0.9,0.6s0.3-0.2,0.3-0.7v-10
		c0-1,0.4-1.9,1.1-2.6c0.7-0.7,1.6-1.1,2.6-1.1s1.9,0.4,2.6,1.1c0.7,0.7,1.1,1.6,1.1,2.6V66c0,1-0.4,1.8-1.1,2.6
		c-0.7,0.7-1.6,1.1-2.6,1.1s-1.9-0.4-2.6-1.1c-0.7-0.7-1.1-1.6-1.1-2.6C204.7,66.6,204.3,66.9,203.9,67.4z M193.8,48.8
		c-1.2,1.6-1.8,3.7-1.8,6.4s0.6,4.8,1.8,6.4c1.2,1.6,2.9,2.3,5,2.3s3.8-0.8,5-2.3c1.2-1.6,1.8-3.7,1.8-6.4s-0.6-4.8-1.8-6.4
		c-1.2-1.6-2.9-2.3-5-2.3C196.7,46.4,195,47.2,193.8,48.8z"/>
	<path class="st0" d="M224.4,66.2c0,1-0.4,1.9-1.1,2.6c-0.7,0.7-1.6,1.1-2.6,1.1s-1.9-0.4-2.6-1.1c-0.7-0.7-1.1-1.6-1.1-2.6V33.4
		c0-1,0.4-1.9,1.1-2.6c0.7-0.7,1.6-1.1,2.6-1.1s1.9,0.4,2.6,1.1c0.7,0.7,1.1,1.6,1.1,2.6V66.2z"/>
	<path class="st0" d="M229.5,30.8c0.7-0.7,1.6-1.1,2.6-1.1s1.9,0.4,2.6,1.1c0.7,0.7,1.1,1.6,1.1,2.6s-0.4,1.9-1.1,2.6
		c-0.7,0.7-1.6,1.1-2.6,1.1s-1.8-0.4-2.6-1.1c-0.7-0.7-1.1-1.6-1.1-2.6S228.7,31.5,229.5,30.8z M235.7,66.2c0,1-0.4,1.9-1.1,2.6
		c-0.7,0.7-1.6,1.1-2.6,1.1s-1.9-0.4-2.6-1.1c-0.7-0.7-1.1-1.6-1.1-2.6V44.8c0-1,0.4-1.9,1.1-2.6c0.7-0.7,1.6-1.1,2.6-1.1
		s1.9,0.4,2.6,1.1c0.7,0.7,1.1,1.6,1.1,2.6V66.2z"/>
	<path class="st0" d="M250.2,40.4v0.7h3.6c0.6,0,1.2,0.2,1.7,0.7s0.7,1,0.7,1.7s-0.2,1.2-0.7,1.7c-0.5,0.4-1,0.7-1.7,0.7h-3.6v20.4
		c0,1-0.4,1.8-1.1,2.6c-0.7,0.7-1.6,1.1-2.6,1.1s-1.9-0.4-2.6-1.1c-0.7-0.7-1.1-1.6-1.1-2.6V45.8h-2.1c-0.6,0-1.2-0.2-1.7-0.7
		c-0.5-0.4-0.7-1-0.7-1.7c0-0.6,0.2-1.2,0.7-1.7s1-0.7,1.7-0.7h2.1v-0.7v-5.7c0-1,0.4-1.9,1.1-2.6c0.7-0.7,1.6-1.1,2.6-1.1
		s1.8,0.4,2.6,1.1c0.7,0.7,1.1,1.6,1.1,2.6L250.2,40.4L250.2,40.4z"/>
	<path class="st0" d="M265.3,57.4c-0.4,0-0.7,0.1-0.8,0.4c-0.2,0.3-0.3,0.6-0.3,1c0,0.5,0.2,1.1,0.5,1.8s0.8,1.3,1.4,1.9
		s1.4,1.1,2.3,1.5c0.9,0.4,1.9,0.6,3.1,0.6c0.7,0,1.3-0.1,1.9-0.2c0.5-0.2,1.1-0.4,1.5-0.7c0.5-0.3,0.9-0.7,1.4-1.2s1-1.1,1.6-1.8
		c0.5-0.6,1.1-0.9,1.7-0.9c0.4,0,0.8,0.1,1.2,0.3s0.8,0.5,1.1,0.8c0.3,0.3,0.6,0.7,0.8,1.1c0.2,0.4,0.3,0.9,0.3,1.3
		c0,0.4-0.2,1.1-0.7,1.9s-1.2,1.6-2.1,2.4c-1,0.8-2.1,1.5-3.6,2.1s-3.1,0.9-5.1,0.9c-2.2,0-4.2-0.4-6-1.2c-1.8-0.8-3.2-1.9-4.5-3.3
		c-1.2-1.4-2.1-3-2.7-4.8s-0.9-3.7-0.9-5.8c0-2,0.3-4,0.8-5.8c0.6-1.8,1.4-3.4,2.6-4.8c1.2-1.4,2.6-2.5,4.3-3.3s3.8-1.2,6.1-1.2
		c2.3,0,4.2,0.4,5.9,1.3c1.6,0.9,3,1.9,4.1,3.2s1.9,2.7,2.4,4.2s0.8,2.9,0.8,4.1c0,1.2-0.2,2.2-0.7,3s-1.1,1.2-1.9,1.2H265.3z
		 M268.2,47c-0.8,0.4-1.5,0.8-2,1.3s-0.9,1.1-1.2,1.7c-0.3,0.6-0.4,1.1-0.4,1.5c0,0.7,0.3,1,0.8,1H277c0.4,0,0.7-0.3,0.7-1
		c0-0.4-0.1-0.9-0.4-1.5s-0.6-1.1-1.2-1.7c-0.5-0.5-1.2-1-2-1.3c-0.8-0.4-1.8-0.6-2.9-0.6S269,46.6,268.2,47z"/>
</g>
<path class="st0" d="M63.3,62c0.4,0.4,0.4,0.9,0,1.3c-1.8,1.8-4.8,2.7-8.8,2.7s-7-0.9-8.8-2.7c-0.4-0.4-0.4-0.9,0-1.3
	c0.2-0.2,0.4-0.3,0.7-0.3s0.5,0.1,0.7,0.3c1.4,1.4,3.9,2.2,7.5,2.2s6-0.7,7.5-2.2c0.2-0.2,0.4-0.3,0.7-0.3
	C62.9,61.7,63.1,61.8,63.3,62z M49.7,54c0,1.1-0.4,2-1.2,2.8S46.8,58,45.7,58s-2-0.4-2.8-1.2C42.1,56,41.8,55,41.8,54
	c0-1.1,0.4-2,1.2-2.8s1.7-1.2,2.8-1.2s2,0.4,2.8,1.2C49.3,51.9,49.7,52.9,49.7,54z M67.1,54c0,1.1-0.4,2-1.2,2.8
	c-0.8,0.8-1.7,1.2-2.8,1.2s-2-0.4-2.8-1.2C59.6,56,59.2,55,59.2,54c0-1.1,0.4-2,1.2-2.8s1.7-1.2,2.8-1.2c1.1,0,2,0.4,2.8,1.2
	C66.7,51.9,67.1,52.9,67.1,54z M78.2,48.7c0-1.4-0.5-2.7-1.5-3.7s-2.3-1.5-3.8-1.5c-1.4,0-2.7,0.5-3.8,1.6
	c-3.9-2.7-8.5-4.1-13.8-4.2l2.8-12.5l8.8,2c0,1.1,0.4,2,1.2,2.8s1.7,1.1,2.8,1.1c1.1,0,2-0.4,2.8-1.2s1.2-1.7,1.2-2.8
	s-0.4-2-1.2-2.8c-0.8-0.8-1.7-1.2-2.8-1.2c-1.7,0-2.8,0.7-3.6,2.2l-9.7-2.2c-0.6-0.2-0.9,0.1-1.1,0.7l-3.1,13.8
	c-5.3,0.2-9.9,1.6-13.7,4.3c-1-1.1-2.3-1.7-3.8-1.7s-2.7,0.5-3.8,1.5c-1,1-1.5,2.3-1.5,3.7c0,1,0.3,2,0.8,2.8c0.6,0.9,1.3,1.5,2.2,2
	c-0.2,0.9-0.3,1.7-0.3,2.5c0,4.2,2.1,7.8,6.2,10.8c4.1,3,9.1,4.5,14.9,4.5s10.8-1.5,15-4.5c4.1-3,6.2-6.6,6.2-10.8
	c0-0.9-0.1-1.7-0.3-2.5c0.9-0.4,1.6-1.1,2.1-1.9C77.9,50.6,78.2,49.7,78.2,48.7z M94,25.2v49.5c0,4.1-1.5,7.6-4.4,10.5
	s-6.4,4.4-10.5,4.4H29.7c-4.1,0-7.6-1.5-10.5-4.4s-4.4-6.4-4.4-10.5V25.2c0-4.1,1.5-7.6,4.4-10.5s6.4-4.4,10.5-4.4h49.5
	c4.1,0,7.6,1.5,10.5,4.4S94,21.2,94,25.2z"/>
</svg>
