<?xml version="1.0" standalone="no"?>
<!DOCTYPE svg PUBLIC "-//W3C//DTD SVG 20010904//EN"
 "http://www.w3.org/TR/2001/REC-SVG-20010904/DTD/svg10.dtd">
<svg version="1.0" xmlns="http://www.w3.org/2000/svg"
 width="512.000000pt" height="512.000000pt" viewBox="0 0 512.000000 512.000000"
 preserveAspectRatio="xMidYMid meet">

<g transform="translate(0.000000,512.000000) scale(0.100000,-0.100000)"
fill="#000000" stroke="none">
<path d="M4042 4699 c-153 -23 -312 -123 -392 -247 l-15 -23 -415 99 c-228 55
-416 99 -418 97 -2 -1 -89 -250 -194 -551 -105 -302 -193 -552 -197 -556 -3
-4 -59 -11 -123 -17 -234 -22 -481 -74 -689 -147 -116 -40 -306 -124 -387
-171 l-53 -30 -84 42 c-47 24 -117 51 -157 61 -94 23 -249 23 -343 0 -369 -90
-622 -472 -566 -856 15 -100 56 -218 102 -295 45 -75 156 -195 219 -235 39
-25 50 -38 50 -59 0 -14 9 -60 19 -102 104 -411 423 -768 903 -1010 636 -320
1514 -374 2213 -136 267 92 454 187 648 329 331 245 541 554 598 883 l12 70
84 79 c117 110 184 211 223 339 98 320 0 650 -254 853 -132 106 -278 157 -451
157 -121 1 -212 -20 -320 -72 l-78 -38 -112 57 c-279 143 -612 238 -959 275
-80 8 -161 15 -181 15 -19 0 -35 2 -35 5 0 11 273 791 279 798 4 4 135 -24
292 -61 l284 -69 6 -89 c33 -506 635 -738 990 -380 108 110 159 225 167 381 8
170 -41 305 -153 423 -135 144 -322 209 -513 181z m144 -260 c101 -18 187 -83
235 -177 20 -39 24 -62 24 -137 0 -105 -22 -162 -88 -228 -61 -61 -137 -92
-227 -92 -65 0 -85 4 -143 33 -79 39 -136 103 -162 183 -24 71 -17 178 14 241
27 53 91 122 136 146 23 12 102 35 146 41 3 1 32 -4 65 -10z m-1311 -1200
c621 -59 1198 -348 1463 -732 359 -521 172 -1120 -470 -1506 -661 -397 -1685
-435 -2414 -91 -524 247 -823 630 -824 1056 -1 667 771 1225 1775 1284 144 8
303 4 470 -11z m-2004 -240 l36 -11 -126 -127 c-191 -190 -308 -379 -368 -593
-31 -111 -36 -112 -87 -18 -162 297 -3 675 319 757 54 14 166 10 226 -8z
m3591 10 c235 -49 412 -286 395 -529 -6 -85 -36 -187 -74 -244 l-26 -39 -33
101 c-76 234 -240 476 -427 632 -37 30 -62 59 -58 63 22 22 150 31 223 16z"/>
<path d="M1703 2556 c-210 -69 -306 -289 -211 -485 67 -139 235 -216 386 -177
76 19 127 50 180 111 60 68 85 141 80 235 -6 131 -76 238 -193 295 -65 32
-178 42 -242 21z"/>
<path d="M3185 2557 c-97 -33 -172 -98 -214 -187 -22 -46 -26 -69 -26 -145 0
-76 4 -98 26 -145 65 -138 219 -218 368 -191 81 15 127 39 182 94 212 212 74
570 -225 584 -41 1 -88 -3 -111 -10z"/>
<path d="M1743 1466 c-38 -17 -73 -69 -73 -109 0 -81 64 -138 264 -232 211
-100 382 -139 611 -139 173 0 271 14 419 61 156 49 383 167 431 225 49 58 27
159 -42 192 -54 26 -79 20 -202 -49 -137 -76 -237 -117 -358 -147 -74 -19
-115 -22 -258 -22 -152 0 -181 3 -268 27 -122 32 -250 88 -347 151 -82 53
-128 64 -177 42z"/>
</g>
</svg>
